<?xml version="1.0" encoding="UTF-8"?>
<svg width="72px" height="72px" viewBox="0 0 72 72" version="1.1" xmlns="http://www.w3.org/2000/svg" xmlns:xlink="http://www.w3.org/1999/xlink">
    <!-- Generator: Sketch 49.3 (51167) - http://www.bohemiancoding.com/sketch -->
    <title>airbnb copy</title>
    <desc>Created with Sketch.</desc>
    <defs></defs>
    <g id="Page-1" stroke="none" stroke-width="1" fill="none" fill-rule="evenodd">
        <g id="Merger" transform="translate(-65.000000, -625.000000)">
            <g id="Clients" transform="translate(-1.000000, 605.000000)">
                <rect id="Rectangle-82-Copy-2" fill="#404754" opacity="0.337744869" x="0" y="0" width="1024" height="112"></rect>
                <g id="airbnb-copy" opacity="0.699999988" transform="translate(66.000000, 20.000000)">
                    <rect id="Path" fill="#5F6675" x="0" y="0" width="72" height="72" rx="4"></rect>
                    <path d="M56.406246,45.6924207 C56.1801348,45.1399424 55.9540237,44.5419657 55.7279126,44.0349856 C55.3663902,43.206918 55.0035904,42.4230487 54.6867794,41.6872775 L54.6420681,41.6404793 C51.5199459,34.7338495 48.1704352,27.7349234 44.6420794,20.8282937 L44.5053908,20.5514045 C44.1438685,19.8611315 43.7823461,19.1240604 43.4195463,18.3882892 C42.9673241,17.5589216 42.5151018,16.6840558 41.7907797,15.8546883 C40.3434129,14.0139603 38.2611465,13 36.0447463,13 C33.7823575,13 31.7460798,14.0139603 30.2527243,15.7636919 C29.5731134,16.5917595 29.0761799,17.4666252 28.6239576,18.2959928 C28.2611578,19.031764 27.8996355,19.7688351 27.5381131,20.4604081 L27.4014245,20.7359973 C23.91778,27.642627 20.523558,34.6415532 17.4014358,41.5481829 L17.3567246,41.6404793 C17.0399135,42.3775504 16.6771137,43.1601198 16.3155914,43.9894874 C16.0894802,44.4951676 15.8633691,45.047646 15.637258,45.6469225 C15.048347,47.3498559 14.8682246,48.9617928 15.0943357,50.6192279 C15.5912693,54.0731928 17.8536581,56.9733793 20.9757803,58.2629288 C22.1523247,58.769909 23.3748578,59 24.6408247,59 C25.0036245,59 25.4558467,58.9532018 25.8173691,58.9077036 C27.3107245,58.7231108 28.8500687,58.2174306 30.3434242,57.3425649 C32.198302,56.2831063 33.9624799,54.7634658 35.9540464,52.5535523 C37.9443354,54.7634658 39.754502,56.2831063 41.5646685,57.3425649 C43.058024,58.2174306 44.5960907,58.7231108 46.0894462,58.9077036 C46.4509686,58.9532018 46.9044683,59 47.2659906,59 C48.533235,59 49.8004793,58.769909 50.931035,58.2629288 C54.0991459,56.9733793 56.315546,54.0263946 56.813757,50.6192279 C57.1752793,49.007291 56.9951569,47.396654 56.406246,45.6924207 L56.406246,45.6924207 Z M35.9987576,48.086927 C33.5549689,44.9553496 31.9721909,42.0096648 31.4292687,39.5228621 C31.2031575,38.4634036 31.1571688,37.5430396 31.29258,36.7136721 C31.38328,35.9779009 31.6553798,35.3318261 32.0169021,34.7806477 C32.8766355,33.5365964 34.3252797,32.754027 35.9987576,32.754027 C37.673513,32.754027 39.1668685,33.4910982 39.9806131,34.7806477 C40.3434129,35.3318261 40.6142353,35.9779009 40.7049352,36.7136721 C40.8403464,37.5430396 40.7956352,38.5089018 40.569524,39.5228621 C40.0266018,41.9628667 38.4425464,44.9098514 35.9987576,48.086927 L35.9987576,48.086927 Z M54.0531572,50.2513423 C53.7363461,52.6458486 52.1535681,54.7179676 49.9358905,55.6383315 C48.8500461,56.0985135 47.6735017,56.2376081 46.4969573,56.0985135 C45.3651241,55.9607189 44.2345684,55.5928333 43.058024,54.9012604 C41.4292573,53.9808964 39.8004907,52.5535523 37.8996241,50.4359351 C40.8863351,46.7050811 42.6965017,43.2979144 43.3748351,40.2599333 C43.6916462,38.8325892 43.7363574,37.5430396 43.6009462,36.3457865 C43.4195463,35.1940315 43.0120353,34.1358729 42.3796906,33.214209 C40.9770351,31.1420901 38.6239463,29.9448369 35.9987576,29.9448369 C33.3748464,29.9448369 31.0217576,31.1888883 29.6191021,33.214209 C28.9854799,34.1358729 28.5779689,35.1940315 28.3978465,36.3457865 C28.2164466,37.5430396 28.2611578,38.8780874 28.6239576,40.2599333 C29.302291,43.2979144 31.1571688,46.7518793 34.0991686,50.4814333 C32.2430133,52.5990505 30.5695354,54.0263946 28.9407687,54.9480586 C27.7642243,55.6383315 26.6323911,56.0075171 25.5018354,56.1453117 C24.2793023,56.2831063 23.1027579,56.0985135 22.0629022,55.6851297 C19.8452246,54.7634658 18.2611691,52.6913469 17.9443581,50.2968406 C17.8089469,49.1463856 17.8996468,47.9946306 18.3518691,46.7050811 C18.4885577,46.2448991 18.7133914,45.7847171 18.94078,45.2322387 C19.2575911,44.4951676 19.6191134,43.7125982 19.9806358,42.9300288 L20.0266245,42.8377324 C23.1487466,35.9779009 26.4969799,28.9776748 29.9806244,22.1633414 L30.1173131,21.8877522 C30.4788354,21.1961793 30.8403577,20.4604081 31.2031575,19.7688351 C31.5646799,19.031764 31.9721909,18.341491 32.4691244,17.7435144 C33.4195577,16.6385576 34.686802,16.0392811 36.0894576,16.0392811 C37.4921131,16.0392811 38.7593575,16.6385576 39.7097907,17.7435144 C40.2067242,18.341491 40.6142353,19.031764 40.9770351,19.7688351 C41.3385574,20.4604081 41.7000797,21.1961793 42.0628795,21.8877522 L42.1982907,22.1633414 C45.637224,29.024473 48.9854573,36.0233991 52.1075794,42.8845306 L52.1075794,42.9300288 C52.4691017,43.6671 52.7859128,44.4951676 53.1487126,45.2322387 C53.3748238,45.7847171 53.6009349,46.2448991 53.7363461,46.7050811 C54.0991459,47.9023343 54.2345571,49.0540892 54.0531572,50.2513423 L54.0531572,50.2513423 Z" id="Fill-2" fill="#B3B9C0"></path>
                </g>
            </g>
        </g>
    </g>
</svg>