<?xml version="1.0" encoding="UTF-8"?>
<svg width="72px" height="72px" viewBox="0 0 72 72" version="1.1" xmlns="http://www.w3.org/2000/svg" xmlns:xlink="http://www.w3.org/1999/xlink">
    <!-- Generator: Sketch 49.3 (51167) - http://www.bohemiancoding.com/sketch -->
    <title>amcharts copy</title>
    <desc>Created with Sketch.</desc>
    <defs></defs>
    <g id="Page-1" stroke="none" stroke-width="1" fill="none" fill-rule="evenodd">
        <g id="Merger" transform="translate(-555.000000, -625.000000)">
            <g id="Clients" transform="translate(-1.000000, 605.000000)">
                <rect id="Rectangle-82-Copy-2" fill="#404754" opacity="0.337744869" x="0" y="0" width="1024" height="112"></rect>
                <g id="amcharts-copy" opacity="0.699999988" transform="translate(556.000000, 20.000000)">
                    <rect id="Rectangle-2" fill="#5F6675" x="0" y="0" width="72" height="72" rx="4"></rect>
                    <path d="M29.1891892,48 C31.5081296,48 33.4650758,46.1287135 35.9629293,42.5055498 C36.6267388,41.5426869 37.2976732,40.498661 38.1803078,39.0744625 C38.2555391,38.953071 39.6130268,36.7482331 39.9907632,36.1454615 C40.6411224,35.1076527 41.1533942,34.3271538 41.6131083,33.6835271 C42.1139686,32.9822934 42.5334697,32.4735209 42.8643738,32.1617301 C43.0219837,32.0132239 43.045754,32 42.8108108,32 C43.4696852,32 43.9308593,32.4221424 45.1098356,34.1488515 C47.0034055,36.9221424 48.1809228,38 50.5945946,38 C53.0082664,38 54.1857836,36.9221424 56.0793536,34.1488515 C57.2583299,32.4221424 57.719504,32 58.3783784,32 C58.251426,32 58.4436063,32.1496729 58.8203452,32.6830955 C59.232978,33.2673402 59.6912495,34.0856839 60.3036404,35.3098975 C60.5016569,35.7057467 61.7023761,38.1758223 62.0798815,38.9223378 C65.136408,44.9666083 67.8353931,48 72,48 L72,44 C69.8658871,44 67.9381297,41.8333917 65.5332053,37.0776622 C65.173677,36.3666962 63.9781592,33.9073209 63.7648752,33.4809508 C63.0683889,32.0886245 62.5276351,31.1229906 61.9699353,30.3333464 C60.9311345,28.8625136 59.8236655,28 58.3783784,28 C55.9647065,28 54.7871893,29.0778576 52.8936194,31.8511485 C51.7146431,33.5778576 51.253469,34 50.5945946,34 C49.9357202,34 49.4745461,33.5778576 48.2955698,31.8511485 C46.4019999,29.0778576 45.2244826,28 42.8108108,28 C41.2282751,28 40.055017,29.1054896 38.4758092,31.3164729 C37.9604511,32.0380042 37.4083697,32.8791573 36.7187985,33.9795385 C36.3310133,34.5983455 34.9655883,36.8160753 34.89775,36.9255375 C34.0465894,38.2989504 33.4066633,39.2947249 32.7873937,40.1929822 C31.0530275,42.7086993 29.7026164,44 29.1891892,44 L13.6216216,44 L9.72972973,48 L29.1891892,48 Z" id="Path-3" fill="#2A2C3C" fill-rule="nonzero"></path>
                    <path d="M11.5457212,35.1364458 C11.6216824,34.955878 11.6216824,34.955878 11.6975175,34.7756084 C15.0957236,26.6986746 17.002637,24 20,24 C22.997363,24 24.9042764,26.6986746 28.3024825,34.7756084 C28.3783176,34.9558782 28.3783176,34.9558782 28.4542788,35.136446 C32.4607824,44.6590472 34.7983655,48.0000002 40.0000001,48 C40.7830885,48 40.7830885,48 41.5678629,48 C50.52234,47.9999998 50.52234,47.9999998 56.9721183,47.9999999 C59.4282148,48 63.4282148,48 64.0000001,48 L60.0000002,44 C59.4282149,44 59.4282149,44 56.9721183,43.9999999 C50.52234,43.9999998 50.52234,43.9999998 41.5678628,44 C40.7830884,44 40.7830884,44 40,44 C37.2469969,44.0000001 35.4312591,41.4048861 32.1412374,33.5852089 C32.0654262,33.4049976 32.0654262,33.4049976 31.9894497,33.2243917 C27.8861265,23.4715197 25.4331122,20 20,20 C14.5668878,20 12.1138735,23.4715196 8.01055032,33.2243917 C7.93457386,33.4049975 7.93457386,33.4049975 7.85876268,33.5852086 C4.56874089,41.4048859 2.75300326,43.9999999 5.25778889e-08,44 L5.25778889e-08,48 C5.20163464,47.9999998 7.53921762,44.6590469 11.5457212,35.1364458 Z" id="Path-2" fill="#B3B9C0" fill-rule="nonzero"></path>
                </g>
            </g>
        </g>
    </g>
</svg>