<?xml version="1.0" encoding="UTF-8"?>
<svg width="72px" height="72px" viewBox="0 0 72 72" version="1.1" xmlns="http://www.w3.org/2000/svg" xmlns:xlink="http://www.w3.org/1999/xlink">
    <!-- Generator: Sketch 49.3 (51167) - http://www.bohemiancoding.com/sketch -->
    <title>bbc</title>
    <desc>Created with Sketch.</desc>
    <defs></defs>
    <g id="Page-1" stroke="none" stroke-width="1" fill="none" fill-rule="evenodd">
        <g id="Merger" transform="translate(-475.000000, -3299.000000)">
            <g id="Trust-us" transform="translate(-1.000000, 2989.000000)">
                <rect id="Rectangle-82-Copy" fill="#404754" opacity="0.337744869" x="0" y="0" width="1024" height="522"></rect>
                <g id="bbc" opacity="0.799999952" transform="translate(476.000000, 310.000000)">
                    <rect id="Rectangle-9" fill="#5C6371" x="0" y="0" width="72" height="72" rx="4"></rect>
                    <path d="M6,27 L24.1469054,27 L24.1469054,45 L6,45 L6,27 Z M26.9266299,45 L26.9266299,27 L45.0735353,27 L45.0735353,45 L26.9266299,45 Z M47.8530946,45 L47.8530946,27 L66,27 L66,45 L47.8530946,45 Z M38.0750905,35.590435 C38.0750905,35.590435 39.6577712,34.8804759 39.6440634,32.9972765 C39.6440634,32.9972765 39.8846943,29.9116318 36.0002477,29.5349224 L31.6890406,29.5349224 L31.6890406,42.4715097 L36.6299839,42.4715097 C36.6299839,42.4715097 40.7588599,42.4859383 40.7588599,38.8208877 C40.7588599,38.8208877 40.8551453,36.3292513 38.0750905,35.590435 Z M33.8773449,31.548675 L35.6390537,31.548675 C37.469467,31.6500232 37.4007625,33.0841961 37.4007625,33.0841961 C37.4007625,34.8660473 35.3776132,34.8950784 35.3776132,34.8950784 L33.8773449,34.8950784 L33.8773449,31.548675 Z M38.501686,38.6324461 C38.501686,40.5881364 36.1895154,40.4721857 36.1895154,40.4721857 L33.8773449,40.4721857 L33.8773449,36.9375145 L36.1895154,36.9375145 C38.5703905,36.9230858 38.501686,38.6324461 38.501686,38.6324461 Z M17.1553971,35.590435 C17.1553971,35.590435 18.7380779,34.8804759 18.72437,32.9972765 C18.72437,32.9972765 18.9650009,29.9116318 15.0805544,29.5349224 L10.7693472,29.5349224 L10.7693472,42.4715097 L15.7102905,42.4715097 C15.7102905,42.4715097 19.8391665,42.4859383 19.8391665,38.8208877 C19.8391665,38.8208877 19.9354519,36.3292513 17.1553971,35.590435 Z M12.9576515,31.548675 L14.7193603,31.548675 C16.5497736,31.6500232 16.4810691,33.0841961 16.4810691,33.0841961 C16.4810691,34.8660473 14.4579199,34.8950784 14.4579199,34.8950784 L12.9578167,34.8950784 L12.9578167,31.548675 L12.9576515,31.548675 Z M17.5819926,38.6324461 C17.5819926,40.5881364 15.269822,40.4721857 15.269822,40.4721857 L12.9576515,40.4721857 L12.9576515,36.9375145 L15.269822,36.9375145 C17.6508622,36.9230858 17.5819926,38.6324461 17.5819926,38.6324461 Z M62.2977195,30.4623542 C60.2882781,29.5787298 58.8983333,29.433748 58.8984985,29.4335741 C56.57262,29.2018466 55.2787955,29.723364 55.2787955,29.723364 C50.4341375,31.2880901 50.5855847,35.9998262 50.5855847,35.9998262 C50.7231589,40.5813567 54.3565697,41.9790234 54.3565697,41.9790234 C58.6781816,43.7754771 62.4078779,41.4430773 62.4078779,41.4430773 L62.4078779,38.9658696 C59.6278231,40.8346403 57.577093,40.5738816 57.577093,40.5738816 C52.6913115,40.3275516 52.8564665,35.9998262 52.8564665,35.9998262 C53.0629103,31.2955652 57.6320896,31.3894383 57.6320896,31.3894383 C60.0818343,31.4184694 62.2977195,32.8526424 62.2977195,32.8526424 L62.2977195,30.4623542 Z" id="Carrés" fill="#B3B9C0"></path>
                </g>
            </g>
        </g>
    </g>
</svg>