<svg width="72" height="72" viewBox="0 0 72 72" xmlns="http://www.w3.org/2000/svg">
    <title>
        codepen copy
    </title>
    <g fill="none" fill-rule="evenodd">
        <path fill="#404754" opacity=".338" d="M-396-20H628V92H-396z"/>
        <g opacity=".7">
            <rect fill="#5F6675" width="72" height="72" rx="4"/>
            <path d="M36.02 10C21.65 10 10 21.657 10 36.02c0 14.365 11.65 26 26 26.021 14.37 0 26.02-11.65 26.02-26.02C62.02 21.65 50.391 10 36 10h.02zm0 47.768c-11.99 0-21.746-9.756-21.746-21.748 0-11.99 9.755-21.73 21.726-21.73 11.991 0 21.753 9.75 21.753 21.747 0 11.998-9.741 21.716-21.753 21.73h.02z" fill="#B3B9C0"/>
            <path d="M52.099 31.307c-.003-.02-.009-.041-.012-.062-.007-.04-.013-.08-.024-.12-.006-.023-.014-.046-.021-.068a1.454 1.454 0 0 0-.036-.104l-.03-.07a1.05 1.05 0 0 0-.047-.093l-.04-.066a1.292 1.292 0 0 0-.174-.225 1.41 1.41 0 0 0-.133-.124c-.02-.016-.041-.033-.063-.048l-.023-.018-14.675-10.07a1.344 1.344 0 0 0-1.531 0L20.614 30.31l-.022.017c-.022.016-.042.033-.063.045a1.667 1.667 0 0 0-.078.068c-.02.017-.037.036-.055.056a.392.392 0 0 0-.069.089 1.295 1.295 0 0 0-.105.148c-.014.022-.027.044-.04.044-.017.03-.032.062-.047.094l-.03.07c-.014.034-.025.069-.036.09-.007.022-.015.045-.021.068-.01.04-.017.08-.025.12a.228.228 0 0 1-.01.044 1.387 1.387 0 0 0-.013.186v10.321c.003 0 0 .044 0 .044.007.045 0 .09.043.12.007.044 0 .044.043.068a.3.3 0 0 0 .044.09c.009.044 0 .044.043.068.015.045.043.045.043.095.013 0 .043.045.043.045.019.044.044.044.044.086.015 0 .043.044.043.062.022.044.043.044.086.089.019 0 .044.045.044.056.025.044.043.044.086.068.02 0 .043.044.043.044.009 0 0 0 .044.018l14.64 10.134c.233.178.52.223.78.24.266 0 .533-.081.765-.24l14.676-10.09c.007-.005.014-.012.023-.017l.062-.049c.027-.022.053-.044.079-.068.019-.017.036-.036.054-.055a1.263 1.263 0 0 0 .175-.225l.04-.065.046-.095.03-.069c.014-.035.025-.07.036-.104l.022-.069c.01-.04.017-.08.024-.12l.011-.06c.008-.063.012-.124.012-.187v-10.09c-.013-.06-.002-.105-.046-.186h.02zm-14.664-7.245l10.811 7.432-4.828 3.332-5.983-4.127v-6.637zm-2.76.012v6.637l-5.981 4.115-4.83-3.332 10.811-7.432v.012zM22.76 34.156l3.452 2.382-3.452 2.38v-4.762zm11.915 14.856L23.865 41.6l4.829-3.33 5.981 4.125v6.617zm1.38-9.108l-4.88-3.366 4.88-3.367 4.88 3.367-4.88 3.366zm1.38 9.108v-6.636l5.983-4.126 4.828 3.33-10.81 7.432zM49.351 38.92L45.9 36.538l3.451-2.382v4.763z" fill="#B3B9C0"/>
        </g>
    </g>
</svg>
