<?xml version="1.0" encoding="UTF-8"?>
<svg width="178px" height="46px" viewBox="0 0 178 46" version="1.1" xmlns="http://www.w3.org/2000/svg" xmlns:xlink="http://www.w3.org/1999/xlink">
    <!-- Generator: Sketch 49.3 (51167) - http://www.bohemiancoding.com/sketch -->
    <title>Group 12</title>
    <desc>Created with Sketch.</desc>
    <defs>
        <filter x="-25.6%" y="-26.5%" width="151.2%" height="164.7%" filterUnits="objectBoundingBox" id="filter-1">
            <feOffset dx="0" dy="2" in="SourceAlpha" result="shadowOffsetOuter1"></feOffset>
            <feGaussianBlur stdDeviation="3" in="shadowOffsetOuter1" result="shadowBlurOuter1"></feGaussianBlur>
            <feColorMatrix values="0 0 0 0 0   0 0 0 0 0   0 0 0 0 0  0 0 0 0.5 0" type="matrix" in="shadowBlurOuter1" result="shadowMatrixOuter1"></feColorMatrix>
            <feMerge>
                <feMergeNode in="shadowMatrixOuter1"></feMergeNode>
                <feMergeNode in="SourceGraphic"></feMergeNode>
            </feMerge>
        </filter>
    </defs>
    <g id="Page-1" stroke="none" stroke-width="1" fill="none" fill-rule="evenodd">
        <g id="Merger" transform="translate(-36.000000, -4005.000000)">
            <g id="Foot" transform="translate(-1.000000, 3948.000000)">
                <rect id="Rectangle-82-Copy-3" fill="#404754" opacity="0.337744869" x="0" y="0" width="1024" height="296"></rect>
                <g id="Group-12" transform="translate(43.000000, 61.000000)" opacity="0.300000012">
                    <path d="M72.078,24 C71.8286654,23.3399967 71.5940011,22.6910032 71.374,22.053 C71.1539989,21.4149968 70.9266678,20.7660033 70.692,20.106 L63.784,20.106 L62.398,24 L60.176,24 C60.7626696,22.3866586 61.3126641,20.8943402 61.826,19.523 C62.3393359,18.1516598 62.8416642,16.8500062 63.333,15.618 C63.8243358,14.3859938 64.3119976,13.2090056 64.796,12.087 C65.2800024,10.9649944 65.7859974,9.8540055 66.314,8.754 L68.272,8.754 C68.8000026,9.8540055 69.3059976,10.9649944 69.79,12.087 C70.2740024,13.2090056 70.7616642,14.3859938 71.253,15.618 C71.7443358,16.8500062 72.2466641,18.1516598 72.76,19.523 C73.2733359,20.8943402 73.8233304,22.3866586 74.41,24 L72.078,24 Z M70.076,18.346 C69.6066643,17.0699936 69.1410023,15.8343393 68.679,14.639 C68.2169977,13.4436607 67.7366692,12.2960055 67.238,11.196 C66.7246641,12.2960055 66.2370023,13.4436607 65.775,14.639 C65.3129977,15.8343393 64.8546689,17.0699936 64.4,18.346 L70.076,18.346 Z M76.478,8.754 L78.612,8.754 L78.612,24 L76.478,24 L76.478,8.754 Z M94.32,21.888 C94.1733326,21.5359982 93.9790012,21.0886694 93.737,20.546 C93.4949988,20.0033306 93.2346681,19.4166698 92.956,18.786 C92.6773319,18.1553302 92.3803349,17.5063367 92.065,16.839 C91.7496651,16.1716633 91.4526681,15.541003 91.174,14.947 C90.8953319,14.352997 90.6350012,13.8213357 90.393,13.352 C90.1509988,12.8826643 89.9566674,12.5233346 89.81,12.274 C89.6486659,14.0046753 89.5166672,15.8783232 89.414,17.895 C89.3113328,19.9116767 89.2233337,21.9466564 89.15,24 L87.06,24 C87.118667,22.6799934 87.1846663,21.3490067 87.258,20.007 C87.3313337,18.6649933 87.4156662,17.3450065 87.511,16.047 C87.6063338,14.7489935 87.7089994,13.4840062 87.819,12.252 C87.9290005,11.0199938 88.0499993,9.8540055 88.182,8.754 L90.052,8.754 C90.448002,9.39933656 90.8733311,10.1619956 91.328,11.042 C91.7826689,11.9220044 92.2373311,12.8423285 92.692,13.803 C93.1466689,14.7636715 93.5866645,15.7243285 94.012,16.685 C94.4373355,17.6456715 94.8259982,18.521996 95.178,19.314 C95.5300018,18.521996 95.9186645,17.6456715 96.344,16.685 C96.7693355,15.7243285 97.2093311,14.7636715 97.664,13.803 C98.1186689,12.8423285 98.5733311,11.9220044 99.028,11.042 C99.4826689,10.1619956 99.907998,9.39933656 100.304,8.754 L102.174,8.754 C102.672669,13.6673579 103.046665,18.7493071 103.296,24 L101.206,24 C101.132666,21.9466564 101.044667,19.9116767 100.942,17.895 C100.839333,15.8783232 100.707334,14.0046753 100.546,12.274 C100.399333,12.5233346 100.205001,12.8826643 99.963,13.352 C99.7209988,13.8213357 99.4606681,14.352997 99.182,14.947 C98.9033319,15.541003 98.6063349,16.1716633 98.291,16.839 C97.9756651,17.5063367 97.6786681,18.1553302 97.4,18.786 C97.1213319,19.4166698 96.8610012,20.0033306 96.619,20.546 C96.3769988,21.0886694 96.1826674,21.5359982 96.036,21.888 L94.32,21.888 Z M106.64,24 L106.64,8.754 L115.946,8.754 L115.946,10.58 L108.774,10.58 L108.774,15.112 L115.154,15.112 L115.154,16.894 L108.774,16.894 L108.774,22.174 L116.496,22.174 L116.496,24 L106.64,24 Z M126.66,17.62 C126.894668,17.9133348 127.191665,18.298331 127.551,18.775 C127.910335,19.2516691 128.280665,19.7796638 128.662,20.359 C129.043335,20.9383362 129.420998,21.5433302 129.795,22.174 C130.169002,22.8046698 130.487999,23.4133304 130.752,24 L128.42,24 C128.126665,23.4426639 127.807668,22.8780029 127.463,22.306 C127.118332,21.7339971 126.770002,21.1876693 126.418,20.667 C126.065998,20.1463307 125.717668,19.6586689 125.373,19.204 C125.028332,18.7493311 124.716668,18.353335 124.438,18.016 C124.247332,18.0306667 124.053001,18.038 123.855,18.038 L123.25,18.038 L121.336,18.038 L121.336,24 L119.202,24 L119.202,8.974 C119.803336,8.8273326 120.47433,8.72833359 121.215,8.677 C121.95567,8.62566641 122.633997,8.6 123.25,8.6 C125.391344,8.6 127.022994,9.0033293 128.145,9.81 C129.267006,10.6166707 129.828,11.8193253 129.828,13.418 C129.828,14.4300051 129.560336,15.2953297 129.025,16.014 C128.489664,16.7326703 127.701339,17.2679982 126.66,17.62 L126.66,17.62 Z M123.426,10.47 C122.516662,10.47 121.820002,10.4919998 121.336,10.536 L121.336,16.278 L122.854,16.278 C123.587337,16.278 124.24733,16.2413337 124.834,16.168 C125.42067,16.0946663 125.915665,15.9553344 126.319,15.75 C126.722335,15.5446656 127.033999,15.2550019 127.254,14.881 C127.474001,14.5069981 127.584,14.0120031 127.584,13.396 C127.584,12.8239971 127.474001,12.3473352 127.254,11.966 C127.033999,11.5846648 126.737002,11.2840011 126.363,11.064 C125.988998,10.8439989 125.549003,10.6900004 125.043,10.602 C124.536997,10.5139996 123.998003,10.47 123.426,10.47 L123.426,10.47 Z M142.346,16.498 L144.48,16.498 L144.48,23.626 C144.303999,23.684667 144.051002,23.7506663 143.721,23.824 C143.390998,23.8973337 143.009669,23.9706663 142.577,24.044 C142.144331,24.1173337 141.671336,24.1796664 141.158,24.231 C140.644664,24.2823336 140.124003,24.308 139.596,24.308 C138.525328,24.308 137.550004,24.1320018 136.67,23.78 C135.789996,23.4279982 135.03467,22.91467 134.404,22.24 C133.77333,21.56533 133.285668,20.7366716 132.941,19.754 C132.596332,18.7713284 132.424,17.6420064 132.424,16.366 C132.424,15.0899936 132.618331,13.9570049 133.007,12.967 C133.395669,11.976995 133.919997,11.14467 134.58,10.47 C135.240003,9.79532996 136.013662,9.28200176 136.901,8.93 C137.788338,8.57799824 138.737995,8.402 139.75,8.402 C140.439337,8.402 141.051664,8.44599956 141.587,8.534 C142.122336,8.62200044 142.580665,8.72466608 142.962,8.842 C143.343335,8.95933392 143.654999,9.07666608 143.897,9.194 C144.139001,9.31133392 144.304,9.39933304 144.392,9.458 L143.71,11.24 C143.284665,10.9613319 142.720004,10.7303342 142.016,10.547 C141.311996,10.3636658 140.593337,10.272 139.86,10.272 C139.082663,10.272 138.375003,10.4113319 137.737,10.69 C137.098997,10.9686681 136.556336,11.3719974 136.109,11.9 C135.661664,12.4280026 135.313335,13.0696629 135.064,13.825 C134.814665,14.5803371 134.69,15.4273286 134.69,16.366 C134.69,17.2753379 134.796332,18.1039963 135.009,18.852 C135.221668,19.6000037 135.544331,20.241664 135.977,20.777 C136.409669,21.312336 136.944997,21.7266652 137.583,22.02 C138.221003,22.3133348 138.972662,22.46 139.838,22.46 C140.454003,22.46 140.978331,22.4270003 141.411,22.361 C141.843669,22.2949997 142.155332,22.232667 142.346,22.174 L142.346,16.498 Z M147.824,24 L147.824,8.754 L157.13,8.754 L157.13,10.58 L149.958,10.58 L149.958,15.112 L156.338,15.112 L156.338,16.894 L149.958,16.894 L149.958,22.174 L157.68,22.174 L157.68,24 L147.824,24 Z M167.844,17.62 C168.078668,17.9133348 168.375665,18.298331 168.735,18.775 C169.094335,19.2516691 169.464665,19.7796638 169.846,20.359 C170.227335,20.9383362 170.604998,21.5433302 170.979,22.174 C171.353002,22.8046698 171.671999,23.4133304 171.936,24 L169.604,24 C169.310665,23.4426639 168.991668,22.8780029 168.647,22.306 C168.302332,21.7339971 167.954002,21.1876693 167.602,20.667 C167.249998,20.1463307 166.901668,19.6586689 166.557,19.204 C166.212332,18.7493311 165.900668,18.353335 165.622,18.016 C165.431332,18.0306667 165.237001,18.038 165.039,18.038 L164.434,18.038 L162.52,18.038 L162.52,24 L160.386,24 L160.386,8.974 C160.987336,8.8273326 161.65833,8.72833359 162.399,8.677 C163.13967,8.62566641 163.817997,8.6 164.434,8.6 C166.575344,8.6 168.206994,9.0033293 169.329,9.81 C170.451006,10.6166707 171.012,11.8193253 171.012,13.418 C171.012,14.4300051 170.744336,15.2953297 170.209,16.014 C169.673664,16.7326703 168.885339,17.2679982 167.844,17.62 L167.844,17.62 Z M164.61,10.47 C163.700662,10.47 163.004002,10.4919998 162.52,10.536 L162.52,16.278 L164.038,16.278 C164.771337,16.278 165.43133,16.2413337 166.018,16.168 C166.60467,16.0946663 167.099665,15.9553344 167.503,15.75 C167.906335,15.5446656 168.217999,15.2550019 168.438,14.881 C168.658001,14.5069981 168.768,14.0120031 168.768,13.396 C168.768,12.8239971 168.658001,12.3473352 168.438,11.966 C168.217999,11.5846648 167.921002,11.2840011 167.547,11.064 C167.172998,10.8439989 166.733003,10.6900004 166.227,10.602 C165.720997,10.5139996 165.182003,10.47 164.61,10.47 L164.61,10.47 Z" id="AI-MERGER" fill="#FFFFFF"></path>
                    <g id="noun_348821_cc" filter="url(#filter-1)" stroke="#FFFFFF">
                        <g id="Group">
                            <path d="M7.15,21.85 C4.6,24.4 4.5,28.15 7.5,31.2 C10.4,34.15 14.35,33.85 16.85,31.4 C18.1,30.2 33.35,14.9 35.85,12.35 C38.35,9.8 38.6,5.7 35.5,2.6 C32.4,-0.5 28.15,0.75 26.25,2.75 C24.3,4.75 16.65,12.45 16.65,12.45 C16.65,12.45 8.75,20.3 7.15,21.85 L7.15,21.85 Z" id="Shape"></path>
                            <path d="M35.9,21.85 C38.45,24.4 38.55,28.15 35.55,31.2 C32.65,34.15 28.7,33.85 26.2,31.4 C24.95,30.2 9.7,14.9 7.2,12.3 C4.7,9.7 4.4,5.6 7.55,2.5 C10.7,-0.6 14.9,0.65 16.8,2.65 C18.7,4.65 26.4,12.35 26.4,12.35 C26.4,12.35 34.35,20.3 35.9,21.85 L35.9,21.85 Z" id="Shape"></path>
                            <path d="M21.5,0.2 C24.1,0.2 25.4,1.95 26.9,3.3 C28.8,5.05 33.1,9.3 33.1,9.3 C33.1,9.3 39.05,15.7 40.35,17 C41.65,18.3 44.65,22.3 40.75,26.2 C36.85,30.05 32.4,27.8 30.65,26.15 C28.9,24.55 21.5,17.05 21.5,17.05 C21.5,17.05 13.7,9.4 11.75,7.35 C9.8,5.35 5.75,4.1 2.65,7.2 C-0.45,10.3 -0.1,14.4 2.35,16.95 C4.85,19.5 13.6,28.3 14.85,29.55 C16.15,30.85 18.25,33.75 21.5,33.75 C24.4,33.75 25.7,31.75 27.25,30.2 L35.25,22.2 C35.25,22.2 39.45,18.05 40.75,16.65 C42.05,15.25 43.45,10.2 40.05,7.25 C36.65,4.3 32.9,5.6 31.5,6.95 C30.1,8.35 21.9,16.7 21.9,16.7 C21.9,16.7 13.6,24.65 12.1,26.15 C10.55,27.65 5.6,29.75 2.55,26.7 C-0.5,23.65 -0.2,19.5 1.95,17.4 C4.1,15.3 11.35,7.7 11.35,7.7 C11.35,7.7 15.2,4 16.7,2.5 C17.85,1.4 19.05,0.15 21.5,0.2 L21.5,0.2 Z" id="Shape"></path>
                        </g>
                    </g>
                </g>
            </g>
        </g>
    </g>
</svg>