<?xml version="1.0" encoding="UTF-8"?>
<svg width="34px" height="22px" viewBox="0 0 34 22" version="1.1" xmlns="http://www.w3.org/2000/svg" xmlns:xlink="http://www.w3.org/1999/xlink">
    <!-- Generator: Sketch 49.3 (51167) - http://www.bohemiancoding.com/sketch -->
    <title>GooglePlus-color</title>
    <desc>Created with Sketch.</desc>
    <defs></defs>
    <g id="Page-1" stroke="none" stroke-width="1" fill="none" fill-rule="evenodd" opacity="0.200000018">
        <g id="Merger" transform="translate(-137.000000, -4109.000000)" fill="#FFFFFF">
            <g id="Foot" transform="translate(-1.000000, 3948.000000)">
                <g id="Group-3-Copy" transform="translate(43.000000, 160.000000)">
                    <path d="M124.867925,10.1287129 L124.867925,6.49009901 L122.273585,6.49009901 L122.273585,10.1287129 L118.537736,10.1287129 L118.537736,12.7277228 L122.273585,12.7277228 L122.273585,16.470297 L124.867925,16.470297 L124.867925,12.7277228 L128.5,12.7277228 L128.5,10.1287129 L124.867925,10.1287129 L124.867925,10.1287129 Z M105.981132,9.92079208 L105.981132,14.0792079 C105.981132,14.0792079 110.007962,14.073802 111.647585,14.073802 C110.759698,16.769599 109.379094,18.2376238 105.981132,18.2376238 C102.542387,18.2376238 99.8584906,15.4449356 99.8584906,12 C99.8584906,8.55506436 102.542387,5.76237624 105.981132,5.76237624 C107.799245,5.76237624 108.973443,6.40256436 110.050509,7.29485644 C110.91266,6.43115347 110.840642,6.30806436 113.034104,4.23291089 C111.172094,2.5350297 108.697302,1.5 105.981132,1.5 C100.192538,1.5 95.5,6.20098515 95.5,12 C95.5,17.7989109 100.192538,22.5 105.981132,22.5 C114.633462,22.5 116.748264,14.9524752 116.04717,9.92079208 L105.981132,9.92079208 L105.981132,9.92079208 Z" id="GooglePlus"></path>
                </g>
            </g>
        </g>
    </g>
</svg>