<?xml version="1.0" encoding="UTF-8"?>
<svg width="72px" height="72px" viewBox="0 0 72 72" version="1.1" xmlns="http://www.w3.org/2000/svg" xmlns:xlink="http://www.w3.org/1999/xlink">
    <!-- Generator: Sketch 49.3 (51167) - http://www.bohemiancoding.com/sketch -->
    <title>grooveshark copy</title>
    <desc>Created with Sketch.</desc>
    <defs>
        <linearGradient x1="50%" y1="0%" x2="50%" y2="100%" id="linearGradient-1">
            <stop stop-color="#FE9B00" offset="0%"></stop>
            <stop stop-color="#FF4E00" offset="61.843533%"></stop>
            <stop stop-color="#FF1E00" offset="100%"></stop>
        </linearGradient>
    </defs>
    <g id="Page-1" stroke="none" stroke-width="1" fill="none" fill-rule="evenodd">
        <g id="Merger" transform="translate(-876.000000, -625.000000)">
            <g id="Clients" transform="translate(-1.000000, 605.000000)">
                <rect id="Rectangle-82-Copy-2" fill="#404754" opacity="0.337744869" x="0" y="0" width="1024" height="112"></rect>
                <g id="grooveshark-copy" opacity="0.699999988" transform="translate(877.000000, 20.000000)">
                    <rect id="Path" fill="#5F6675" x="0" y="0" width="72" height="72" rx="4"></rect>
                    <path d="M36,60 C22.7451819,60 12,49.2546981 12,36 C12,22.745086 22.7451819,12 36,12 C49.254938,12 60,22.745086 60,36 C60,49.2546981 49.254938,60 36,60 Z M53.5372251,40.5879248 C53.9157937,39.0928429 54.1036385,37.5519392 54.0938025,36.0093563 C54.0705318,33.1052699 53.1385046,29.9019032 49.4929228,31.4389684 C47.7704118,32.1653499 46.3343463,33.6415034 45.2638944,35.1370652 C44.0355858,36.8540584 42.7772891,38.5413035 41.4007197,40.1417033 C40.1064374,41.6447021 38.7296281,43.0853259 37.2345462,44.3868053 C35.742535,45.6868453 34.1186006,46.9228309 32.3304518,47.7814474 C31.1315074,48.3593762 29.8966493,48.7940824 28.6186086,49.1604158 C28.4738265,49.2007197 28.0835026,49.3777689 27.9682287,49.1997601 C27.897385,49.0896441 27.9517473,48.8838065 27.9664534,48.7616953 C27.9979528,48.4968413 28.0291403,48.232467 28.0620552,47.9683327 C28.4441983,44.797521 28.5890764,41.4506198 27.6042703,38.3716913 C27.0757137,36.7122751 26.1122591,35.1956257 24.8277409,34.0202879 C23.7623271,33.0472611 22.242415,32.0616873 20.7323151,32.1320752 C20.4542663,32.1437825 20.1742503,32.1917633 19.897521,32.2835986 C18.2805198,32.8287325 18.1867173,34.5735546 18.1784646,36.0093563 C18.1652459,37.5519392 18.3529468,39.0928429 18.735018,40.5879248 C18.8502919,41.0490204 18.995074,41.4998001 19.1483007,41.9510596 C20.9154338,47.0720512 25.0023191,51.2430228 30.1370332,53.0612555 C32.0605598,53.7428229 34.0957137,54.0868453 36.1343463,54.0868453 C42.1384246,54.0868453 47.8493403,51.0009596 51.1494602,45.9876849 C51.9761695,44.7310676 52.6380648,43.370092 53.1255498,41.9510596 L53.1190724,41.9510596 C53.2738105,41.4998001 53.4184726,41.0490204 53.5372251,40.5879248 Z" id="path22" fill="#B3B9C0" transform="translate(36.000000, 36.000000) scale(1, -1) translate(-36.000000, -36.000000) "></path>
                </g>
            </g>
        </g>
    </g>
</svg>