<?xml version="1.0" encoding="UTF-8"?>
<svg width="72px" height="72px" viewBox="0 0 72 72" version="1.1" xmlns="http://www.w3.org/2000/svg" xmlns:xlink="http://www.w3.org/1999/xlink">
    <!-- Generator: Sketch 49.3 (51167) - http://www.bohemiancoding.com/sketch -->
    <title>imdb copy</title>
    <desc>Created with Sketch.</desc>
    <defs></defs>
    <g id="Page-1" stroke="none" stroke-width="1" fill="none" fill-rule="evenodd">
        <g id="Merger" transform="translate(-235.000000, -625.000000)">
            <g id="Clients" transform="translate(-1.000000, 605.000000)">
                <rect id="Rectangle-82-Copy-2" fill="#404754" opacity="0.337744869" x="0" y="0" width="1024" height="112"></rect>
                <g id="imdb-copy" opacity="0.699999988" transform="translate(236.000000, 20.000000)">
                    <rect id="Path" fill="#5F6675" x="0" y="0" width="72" height="72" rx="4"></rect>
                    <path d="M16.6641113,46 L12,46 L12,26.0001719 L16.6641113,26.0001719 L16.6641113,46 L16.6641113,46 Z M33.9616087,46 L29.9804893,46 L29.9804893,34.7730035 L28.0543998,46 L25.1736926,46 L23.197696,34.7730035 L23.197696,46 L18.995676,46 L18.995676,26.0003438 L24.9986084,26.0003438 L26.5591483,35.434851 L27.6399249,26.0003438 L33.9619359,26.0003438 L33.9619359,46 L33.9616087,46 Z M36.4239138,46 L36.4239138,26.0001719 L41.6425674,26.0001719 C44.7497386,26.0001719 45.5048914,26.3233598 46.3925844,26.9695636 C47.2799503,27.6159394 47.723715,28.6083668 47.723715,29.9470178 L47.723715,42.0528103 C47.723715,43.2986307 47.3090764,44.2685382 46.4788175,44.9609854 C45.649704,45.6536045 44.6510697,46 41.6689118,46 L36.4239138,46 L36.4239138,46 Z M42.7176169,41.8040588 L42.7176169,30.0754334 C42.7176169,29.1010564 41.7109648,29.1913083 40.9140864,29.1913083 L40.9140864,42.624062 C41.7109648,42.624062 42.7176169,42.7500709 42.7176169,41.8040588 L42.7176169,41.8040588 Z M53.6913033,44.9570315 C53.3645341,44.8081588 53.0717999,45.9998281 53.0717999,45.9998281 L49.2194574,45.9998281 L49.2194574,26 L53.99091,26 L53.99091,30.5786094 C54.4716551,30.0109678 55.8121126,29.1282179 57.1129715,29.1911364 C58.4136669,29.2542268 60.1137832,30.2633294 59.994006,31.9411557 L59.994006,43.5729966 C59.994006,44.3911089 59.6516919,45.0371408 58.9682092,45.5112643 C58.4213575,45.7613911 57.9535392,45.8396094 56.8120559,45.8396094 C55.6708998,45.8397813 54.0180726,45.106248 53.6913033,44.9570315 L53.6913033,44.9570315 Z M55.3017504,42.5444684 L55.3048594,32.4702899 C55.3048594,31.9776003 55.0880495,31.7312555 54.6541026,31.7312555 C54.2118106,31.7312555 53.99091,31.9683173 53.99091,32.4426127 L53.987801,42.5444684 C53.987801,43.0375018 54.2088652,43.3804592 54.6511573,43.3804592 C55.0849406,43.3806311 55.3017504,43.0375018 55.3017504,42.5444684 L55.3017504,42.5444684 Z" id="Shape" fill="#AEB7C0"></path>
                </g>
            </g>
        </g>
    </g>
</svg>