<?xml version="1.0" encoding="UTF-8"?>
<svg width="24px" height="24px" viewBox="0 0 24 24" version="1.1" xmlns="http://www.w3.org/2000/svg" xmlns:xlink="http://www.w3.org/1999/xlink">
    <!-- Generator: Sketch 49.3 (51167) - http://www.bohemiancoding.com/sketch -->
    <title>Instagram-color</title>
    <desc>Created with Sketch.</desc>
    <defs></defs>
    <g id="Page-1" stroke="none" stroke-width="1" fill="none" fill-rule="evenodd" opacity="0.200000018">
        <g id="Merger" transform="translate(-192.000000, -4108.000000)" fill="#FFFFFF">
            <g id="Foot" transform="translate(-1.000000, 3948.000000)">
                <g id="Group-3-Copy" transform="translate(43.000000, 160.000000)">
                    <path d="M162.000024,0 C165.259004,0 165.667657,0.0138138818 166.947585,0.0722132578 C168.224845,0.130469732 169.097168,0.333343257 169.860456,0.630008276 C170.649562,0.936628817 171.318773,1.34694874 171.985936,2.01406396 C172.653051,2.68122682 173.063371,3.35043794 173.370039,4.13954402 C173.666657,4.90283244 173.86953,5.77515526 173.927787,7.05241535 C173.986186,8.33234294 174,8.74099567 174,12.0000238 C174,15.2590043 173.986186,15.6676571 173.927787,16.9475847 C173.86953,18.2248447 173.666657,19.0971676 173.370039,19.860456 C173.063371,20.6495621 172.653051,21.3187732 171.985936,21.985936 C171.318773,22.6530513 170.649562,23.0633712 169.860456,23.3700394 C169.097168,23.6666567 168.224845,23.8695303 166.947585,23.9277867 C165.667657,23.9861861 165.259004,24 162.000024,24 C158.740996,24 158.332343,23.9861861 157.052415,23.9277867 C155.775155,23.8695303 154.902832,23.6666567 154.139544,23.3700394 C153.350438,23.0633712 152.681227,22.6530513 152.014064,21.985936 C151.346949,21.3187732 150.936629,20.6495621 150.630008,19.860456 C150.333343,19.0971676 150.13047,18.2248447 150.072213,16.9475847 C150.013814,15.6676571 150,15.2590043 150,12.0000238 C150,8.74099567 150.013814,8.33234294 150.072213,7.05241535 C150.13047,5.77515526 150.333343,4.90283244 150.630008,4.13954402 C150.936629,3.35043794 151.346949,2.68122682 152.014064,2.01406396 C152.681227,1.34694874 153.350438,0.936628817 154.139544,0.630008276 C154.902832,0.333343257 155.775155,0.130469732 157.052415,0.0722132578 C158.332343,0.0138138818 158.740996,0 162.000024,0 Z M162.000024,2.1621583 C158.79587,2.1621583 158.416322,2.17440026 157.15097,2.23213276 C155.980982,2.28548292 155.345591,2.48097316 154.922743,2.64531072 C154.362614,2.86299845 153.962869,3.12303286 153.542975,3.54297487 C153.123033,3.96286924 152.862998,4.3626144 152.645311,4.92274348 C152.480973,5.34559117 152.285483,5.9809821 152.232133,7.15097025 C152.1744,8.41632182 152.162158,8.79587013 152.162158,12.0000238 C152.162158,15.2041299 152.1744,15.5836782 152.232133,16.8490298 C152.285483,18.0190179 152.480973,18.6544088 152.645311,19.0772565 C152.862998,19.6373856 153.12308,20.0371308 153.542975,20.4570251 C153.962869,20.8769671 154.362614,21.1370016 154.922743,21.3546893 C155.345591,21.5190268 155.980982,21.7145171 157.15097,21.7678672 C158.416179,21.8255997 158.795632,21.8378417 162.000024,21.8378417 C165.204368,21.8378417 165.583869,21.8255997 166.84903,21.7678672 C168.019018,21.7145171 168.654409,21.5190268 169.077257,21.3546893 C169.637386,21.1370016 170.037131,20.8769671 170.457025,20.4570251 C170.876967,20.0371308 171.137002,19.6373856 171.354689,19.0772565 C171.519027,18.6544088 171.714517,18.0190179 171.767867,16.8490298 C171.8256,15.5836782 171.837842,15.2041299 171.837842,12.0000238 C171.837842,8.79587013 171.8256,8.41632182 171.767867,7.15097025 C171.714517,5.9809821 171.519027,5.34559117 171.354689,4.92274348 C171.137002,4.3626144 170.876967,3.96286924 170.457025,3.54297487 C170.037131,3.12303286 169.637386,2.86299845 169.077257,2.64531072 C168.654409,2.48097316 168.019018,2.28548292 166.84903,2.23213276 C165.583678,2.17440026 165.20413,2.1621583 162.000024,2.1621583 Z M162.000024,5.8378417 C165.403288,5.8378417 168.162158,8.59671206 168.162158,12.0000238 C168.162158,15.4032879 165.403288,18.1621583 162.000024,18.1621583 C158.596712,18.1621583 155.837842,15.4032879 155.837842,12.0000238 C155.837842,8.59671206 158.596712,5.8378417 162.000024,5.8378417 Z M162.000024,16 C164.209149,16 166,14.2091493 166,12.0000238 C166,9.79085069 164.209149,8 162.000024,8 C159.790851,8 158,9.79085069 158,12.0000238 C158,14.2091493 159.790851,16 162.000024,16 Z M169.845642,5.59438394 C169.845642,6.38968246 169.200915,7.03436203 168.405616,7.03436203 C167.610365,7.03436203 166.965638,6.38968246 166.965638,5.59438394 C166.965638,4.79908543 167.610365,4.15435822 168.405616,4.15435822 C169.200915,4.15435822 169.845642,4.79908543 169.845642,5.59438394 Z" id="Instagram"></path>
                </g>
            </g>
        </g>
    </g>
</svg>