<?xml version="1.0" encoding="UTF-8"?>
<svg width="72px" height="72px" viewBox="0 0 72 72" version="1.1" xmlns="http://www.w3.org/2000/svg" xmlns:xlink="http://www.w3.org/1999/xlink">
    <!-- Generator: Sketch 49.3 (51167) - http://www.bohemiancoding.com/sketch -->
    <title>jsfiddle</title>
    <desc>Created with Sketch.</desc>
    <defs></defs>
    <g id="Page-1" stroke="none" stroke-width="1" fill="none" fill-rule="evenodd">
        <g id="Merger" transform="translate(-636.000000, -3299.000000)">
            <g id="Trust-us" transform="translate(-1.000000, 2989.000000)">
                <rect id="Rectangle-82-Copy" fill="#404754" opacity="0.337744869" x="0" y="0" width="1024" height="522"></rect>
                <g id="jsfiddle" opacity="0.799999952" transform="translate(637.000000, 310.000000)">
                    <rect id="Rectangle-3" fill="#525867" x="0" y="0" width="72" height="72" rx="4"></rect>
                    <path d="M64,44.9407143 C64,51.0414286 59.0507812,56 52.9804688,56 C52.7651094,56 52.5703125,55.9721429 52.3789062,55.9721429 L19.1015625,55.9721429 C12.9765625,55.61 8,50.8464286 8,44.6621429 C8,40.5114286 10.2148438,36.8882171 13.5234375,34.9139257 C13.3064375,34.18964 13.1935625,33.4374971 13.1935625,32.6278571 C13.1935625,28.3657143 16.6132812,24.9114286 20.8771562,24.9114286 C22.6271562,24.9114286 24.2677813,25.5242857 25.5802813,26.5271429 C28.2617188,20.9 33.9492188,17 40.59375,17 C49.8085938,17 57.2460938,24.4935714 57.2460938,33.7142857 C57.2460938,34.0503543 57.21875,34.3863114 57.21875,34.7171429 C61.1835938,36.3885714 64,40.3442857 64,44.9407143 L64,44.9407143 Z M28.783,49.4814286 C31.4644375,49.4814286 33.4023438,48.6178571 35.3455,46.7270257 C34.5507813,45.7241686 33.6757813,44.7457143 32.8572188,43.7463114 C31.737875,44.8571429 30.5056563,45.5570257 28.9197188,45.5570257 C26.9765625,45.5570257 25.3103438,44.24774 25.3103438,42.1863114 C25.3103438,40.1561943 26.9800625,38.8190514 28.8667813,38.8190514 C34.8841563,38.8190514 36.1675625,49.5161943 44.9175625,49.5161943 C49.1865781,49.5161943 52.7925625,46.78274 52.7925625,42.2176229 C52.7925625,37.5915543 49.1558438,34.88774 44.8389219,34.88774 C42.1558438,34.88774 40.1631406,35.6695229 38.2490781,37.5916657 C39.1240781,38.5648829 39.941,39.5955971 40.7920469,40.60202 C41.8857969,39.5121371 43.1162656,38.8191629 44.6748594,38.8191629 C46.4795469,38.8191629 48.2808438,40.1284486 48.2808438,42.0784486 C48.2808438,44.2234486 46.7462031,45.5849943 44.7022031,45.5849943 C38.8779844,45.5849943 37.3193906,34.8878514 28.7863906,34.8878514 C24.5481094,34.8878514 20.8037656,37.53428 20.8037656,42.1307086 C20.795125,46.835 24.4318438,49.4814286 28.783,49.4814286 L28.783,49.4814286 Z" id="Shape" fill="#B3B9C0"></path>
                </g>
            </g>
        </g>
    </g>
</svg>