<?xml version="1.0" encoding="UTF-8"?>
<svg width="22px" height="20px" viewBox="0 0 22 20" version="1.1" xmlns="http://www.w3.org/2000/svg" xmlns:xlink="http://www.w3.org/1999/xlink">
    <!-- Generator: Sketch 49.3 (51167) - http://www.bohemiancoding.com/sketch -->
    <title>LinkedIn-color</title>
    <desc>Created with Sketch.</desc>
    <defs></defs>
    <g id="Page-1" stroke="none" stroke-width="1" fill="none" fill-rule="evenodd" opacity="0.200000018">
        <g id="Merger" transform="translate(-338.000000, -4110.000000)" fill="#FFFFFF">
            <g id="Foot" transform="translate(-1.000000, 3948.000000)">
                <g id="Group-3-Copy" transform="translate(43.000000, 160.000000)">
                    <path d="M318,22 L313.1377,22 L313.1377,14.9692002 C313.1377,13.128898 312.377117,11.8725748 310.70461,11.8725748 C309.425329,11.8725748 308.713899,12.7203688 308.382761,13.5374272 C308.258584,13.8306973 308.277987,14.2392265 308.277987,14.6477557 L308.277987,22 L303.46096,22 C303.46096,22 303.523048,9.54562336 303.46096,8.41352372 L308.277987,8.41352372 L308.277987,10.5458155 C308.562559,9.61349811 310.101834,8.28289684 312.558208,8.28289684 C315.605715,8.28289684 318,10.2371774 318,14.4454121 L318,22 L318,22 Z M298.589605,6.71409362 L298.558561,6.71409362 C297.00635,6.71409362 296,5.67548185 296,4.35896779 C296,3.01684062 297.036101,2 298.619356,2 C300.201317,2 301.174036,3.01427931 301.20508,4.35512582 C301.20508,5.67163988 300.201317,6.71409362 298.589605,6.71409362 L298.589605,6.71409362 L298.589605,6.71409362 Z M296.554915,8.41352372 L300.842897,8.41352372 L300.842897,22 L296.554915,22 L296.554915,8.41352372 L296.554915,8.41352372 Z" id="LinkedIn"></path>
                </g>
            </g>
        </g>
    </g>
</svg>