<?xml version="1.0" encoding="UTF-8"?>
<svg width="72px" height="72px" viewBox="0 0 72 72" version="1.1" xmlns="http://www.w3.org/2000/svg" xmlns:xlink="http://www.w3.org/1999/xlink">
    <!-- Generator: Sketch 49.3 (51167) - http://www.bohemiancoding.com/sketch -->
    <title>livejournal</title>
    <desc>Created with Sketch.</desc>
    <defs></defs>
    <g id="Page-1" stroke="none" stroke-width="1" fill="none" fill-rule="evenodd">
        <g id="Merger" transform="translate(-155.000000, -3299.000000)">
            <g id="Trust-us" transform="translate(-1.000000, 2989.000000)">
                <rect id="Rectangle-82-Copy" fill="#404754" opacity="0.337744869" x="0" y="0" width="1024" height="522"></rect>
                <g id="livejournal" opacity="0.799999952" transform="translate(156.000000, 310.000000)">
                    <rect id="Rectangle-9" fill="#5F6675" x="0" y="0" width="72" height="72" rx="4"></rect>
                    <g transform="translate(15.000000, 15.000000)">
                        <path d="M21.2519011,2.75040606 C18.6380853,2.75040606 16.154165,3.29517194 13.89955,4.26938829 L9.83169972,0.206839844 L9.82242147,0.206839844 C5.52791675,2.08767385 2.08568566,5.54713598 0.228710007,9.85622081 L4.30318763,13.926722 L4.3005367,13.9306984 C3.3170421,16.1892898 2.73118683,18.6493518 2.73118683,21.2711204 C2.73118683,31.5023802 11.0219668,39.7931602 21.2519011,39.7931602 C31.4778591,39.7931602 39.77129,31.4997293 39.77129,21.2711204 C39.77129,11.0425115 31.4791846,2.75040606 21.2519011,2.75040606" id="Fill-1" fill="#B3B9C0"></path>
                        <path d="M19.2690064,28.8700079 L4.20510326,13.835265 C6.06075345,9.52352924 9.50298454,6.06539257 13.8001402,4.1832331 L13.8067675,4.18455856 L28.8653688,19.2206269 L28.8627178,19.2206269 C24.5695386,21.1027864 21.1246566,24.5622485 19.2690064,28.8700079 Z M29.9416459,24.3568015 L31.4009822,31.416225 L24.368068,29.9621906 C25.4483215,27.4610392 27.4471218,25.4489842 29.9416459,24.3568015 Z" id="Fill-4" fill="#5F6675"></path>
                    </g>
                </g>
            </g>
        </g>
    </g>
</svg>