<?xml version="1.0" encoding="UTF-8"?>
<svg width="25px" height="24px" viewBox="0 0 25 24" version="1.1" xmlns="http://www.w3.org/2000/svg" xmlns:xlink="http://www.w3.org/1999/xlink">
    <!-- Generator: Sketch 49.3 (51167) - http://www.bohemiancoding.com/sketch -->
    <title>Pinterest-color</title>
    <desc>Created with Sketch.</desc>
    <defs></defs>
    <g id="Page-1" stroke="none" stroke-width="1" fill="none" fill-rule="evenodd" opacity="0.200000018">
        <g id="Merger" transform="translate(-243.000000, -4108.000000)" fill="#FFFFFF">
            <g id="Foot" transform="translate(-1.000000, 3948.000000)">
                <g id="Group-3-Copy" transform="translate(43.000000, 160.000000)">
                    <path d="M213.500706,0 C206.873787,0 201.5,5.37237608 201.5,12.0007056 C201.5,16.9130358 204.455019,21.1352972 208.684336,22.9910037 C208.650467,22.1541718 208.678691,21.1465867 208.89178,20.2349621 C209.123214,19.2612454 210.435615,13.6969483 210.435615,13.6969483 C210.435615,13.6969483 210.053184,12.9306756 210.053184,11.7974951 C210.053184,10.0194038 211.084759,8.69147998 212.367525,8.69147998 C213.45837,8.69147998 213.986153,9.51137767 213.986153,10.4935615 C213.986153,11.5900512 213.286206,13.2312577 212.926354,14.7511025 C212.625772,16.0254013 213.564209,17.0626213 214.820162,17.0626213 C217.093579,17.0626213 218.624713,14.1428823 218.624713,10.6826601 C218.624713,8.05362498 216.853678,6.08502381 213.631946,6.08502381 C209.992503,6.08502381 207.724731,8.79872993 207.724731,11.8299524 C207.724731,12.8770506 208.032369,13.6136885 208.514994,14.1838067 C208.737961,14.447698 208.767596,14.5521256 208.687158,14.8541189 C208.630711,15.0728524 208.49806,15.6062798 208.443023,15.8165461 C208.362586,16.1199506 208.11704,16.2300229 207.84327,16.1171282 C206.165373,15.4327042 205.384989,13.5967543 205.384989,11.5321926 C205.384989,8.12418416 208.25957,4.034574 213.960751,4.034574 C218.542865,4.034574 221.558564,7.35226671 221.558564,10.9098606 C221.558564,15.6175692 218.94223,19.1342388 215.082642,19.1342388 C213.788587,19.1342388 212.569324,18.4342918 212.151614,17.6397954 C212.151614,17.6397954 211.454489,20.4043041 211.307726,20.9377315 C211.053713,21.8620568 210.555565,22.7877933 210.099753,23.5074969 C211.179309,23.8264244 212.319545,24 213.500706,24 C220.127624,24 225.5,18.6276239 225.5,12.0007056 C225.5,5.37237608 220.127624,0 213.500706,0" id="Pinterest"></path>
                </g>
            </g>
        </g>
    </g>
</svg>