<?xml version="1.0" encoding="UTF-8"?>
<svg width="84px" height="68px" viewBox="0 0 84 68" version="1.1" xmlns="http://www.w3.org/2000/svg" xmlns:xlink="http://www.w3.org/1999/xlink">
    <!-- Generator: Sketch 49.3 (51167) - http://www.bohemiancoding.com/sketch -->
    <title>Page 1</title>
    <desc>Created with Sketch.</desc>
    <defs>
        <filter x="-25.0%" y="-28.6%" width="150.0%" height="165.3%" filterUnits="objectBoundingBox" id="filter-1">
            <feOffset dx="0" dy="2" in="SourceAlpha" result="shadowOffsetOuter1"></feOffset>
            <feGaussianBlur stdDeviation="5" in="shadowOffsetOuter1" result="shadowBlurOuter1"></feGaussianBlur>
            <feColorMatrix values="0 0 0 0 0   0 0 0 0 0   0 0 0 0 0  0 0 0 0.4 0" type="matrix" in="shadowBlurOuter1" result="shadowMatrixOuter1"></feColorMatrix>
            <feMerge>
                <feMergeNode in="shadowMatrixOuter1"></feMergeNode>
                <feMergeNode in="SourceGraphic"></feMergeNode>
            </feMerge>
        </filter>
    </defs>
    <g id="Page-1" stroke="none" stroke-width="1" fill="none" fill-rule="evenodd">
        <g id="Merger" transform="translate(-815.000000, -1001.000000)" fill="#D48800">
            <g id="Eggs" transform="translate(52.000000, 832.000000)">
                <g id="Page-1" filter="url(#filter-1)" transform="translate(773.000000, 177.000000)">
                    <path d="M31.838,22.258 C15.536,22.258 1.586,12.756 0,0.514 L3.968,0 C5.298,10.28 17.508,18.258 31.834,18.258 L32.152,18.258 C46.628,18.138 58.86,10.134 59.996,0.034 L63.972,0.48 C62.588,12.758 48.924,22.12 32.184,22.258 L31.838,22.258" id="Fill-4" transform="translate(31.986000, 11.129000) scale(1, -1) translate(-31.986000, -11.129000) "></path>
                    <path d="M31.8418,48.002 C15.5398,48.002 1.5898,38.5 0.0038,26.258 L3.9718,25.744 C5.3018,36.024 17.5118,44.002 31.8378,44.002 L32.1558,44.002 C46.6318,43.882 58.8638,35.878 59.9998,25.778 L63.9758,26.224 C62.5918,38.502 48.9278,47.864 32.1878,48.002 L31.8418,48.002" id="Fill-4"></path>
                    <path d="M31.9902,12.001 C25.2742,12.055 19.9362,17.485 19.9902,24.101 C20.0442,30.663 25.4262,36.001 31.9862,36.001 L31.9862,38.001 L32.0882,36.001 C35.2922,35.975 38.2962,34.701 40.5442,32.417 C42.7902,30.131 44.0162,27.107 43.9882,23.903 C43.9362,17.339 38.5522,12.001 31.9902,12.001 L31.9902,12.001 Z M31.9862,40.001 C23.2382,40.001 16.0622,32.883 15.9902,24.135 C15.9162,15.313 23.0342,8.075 31.8582,8.001 C40.7402,8.001 47.9182,15.119 47.9882,23.869 C48.0242,28.143 46.3922,32.175 43.3962,35.221 C40.3982,38.267 36.3942,39.965 32.1222,40.001 L31.9862,40.001 Z" id="Fill-6"></path>
                    <path d="M23.9882,24.0684 C23.9502,19.6564 27.5122,16.0364 31.9242,16.0004 L31.9542,20.0004 C29.7502,20.0204 27.9702,21.8284 27.9882,24.0344 L23.9882,24.0684 Z" id="Fill-8"></path>
                </g>
            </g>
        </g>
    </g>
</svg>