<?xml version="1.0" encoding="UTF-8"?>
<svg width="84px" height="84px" viewBox="0 0 84 84" version="1.1" xmlns="http://www.w3.org/2000/svg" xmlns:xlink="http://www.w3.org/1999/xlink">
    <!-- Generator: Sketch 49.3 (51167) - http://www.bohemiancoding.com/sketch -->
    <title>Page 1</title>
    <desc>Created with Sketch.</desc>
    <defs>
        <filter x="-25.0%" y="-21.9%" width="150.0%" height="150.0%" filterUnits="objectBoundingBox" id="filter-1">
            <feOffset dx="0" dy="2" in="SourceAlpha" result="shadowOffsetOuter1"></feOffset>
            <feGaussianBlur stdDeviation="5" in="shadowOffsetOuter1" result="shadowBlurOuter1"></feGaussianBlur>
            <feColorMatrix values="0 0 0 0 0   0 0 0 0 0   0 0 0 0 0  0 0 0 0.4 0" type="matrix" in="shadowBlurOuter1" result="shadowMatrixOuter1"></feColorMatrix>
            <feMerge>
                <feMergeNode in="shadowMatrixOuter1"></feMergeNode>
                <feMergeNode in="SourceGraphic"></feMergeNode>
            </feMerge>
        </filter>
    </defs>
    <g id="Page-1" stroke="none" stroke-width="1" fill="none" fill-rule="evenodd">
        <g id="Merger" transform="translate(-468.000000, -994.000000)" fill="#00B46E">
            <g id="Eggs" transform="translate(52.000000, 832.000000)">
                <g id="Page-1" filter="url(#filter-1)" transform="translate(426.000000, 170.000000)">
                    <polygon id="Fill-1" points="30 16 34 16 34 8 30 8"></polygon>
                    <polygon id="Fill-2" points="48 34 56 34 56 30 48 30"></polygon>
                    <polygon id="Fill-3" points="8 34 16 34 16 30 8 30"></polygon>
                    <polygon id="Fill-4" points="19.2734 22.0976 13.6174 16.4416 16.4454 13.6136 22.1014 19.2696"></polygon>
                    <polygon id="Fill-5" points="32.6816 33.8184 29.8816 30.9624 47.5716 13.6004 50.3736 16.4544"></polygon>
                    <path d="M32,64 C14.356,64 0,49.644 0,32 C0,14.356 14.356,0 32,0 C39.596,0 46.952,2.706 52.71,7.616 L50.118,10.658 C45.08,6.366 38.646,4 32,4 C16.56,4 4,16.56 4,32 C4,47.44 16.56,60 32,60 C47.44,60 60,47.44 60,32 C60,25.376 57.648,18.958 53.376,13.922 L56.428,11.336 C61.31,17.092 64,24.43 64,32 C64,49.644 49.644,64 32,64" id="Fill-6"></path>
                    <path d="M21.8554,51.5996 L18.4654,49.4776 C21.3894,44.7976 26.4494,41.9996 31.9994,41.9996 C37.5554,41.9996 42.6154,44.7976 45.5374,49.4796 L42.1434,51.5976 C39.9574,48.0916 36.1654,45.9996 31.9994,45.9996 C27.8374,45.9996 24.0474,48.0936 21.8554,51.5996" id="Fill-8"></path>
                </g>
            </g>
        </g>
    </g>
</svg>