<?xml version="1.0" encoding="UTF-8"?>
<svg width="72px" height="72px" viewBox="0 0 72 72" version="1.1" xmlns="http://www.w3.org/2000/svg" xmlns:xlink="http://www.w3.org/1999/xlink">
    <!-- Generator: Sketch 49.3 (51167) - http://www.bohemiancoding.com/sketch -->
    <title>wikipedia</title>
    <desc>Created with Sketch.</desc>
    <defs></defs>
    <g id="Page-1" stroke="none" stroke-width="1" fill="none" fill-rule="evenodd">
        <g id="Merger" transform="translate(-315.000000, -3299.000000)">
            <g id="Trust-us" transform="translate(-1.000000, 2989.000000)">
                <rect id="Rectangle-82-Copy" fill="#404754" opacity="0.337744869" x="0" y="0" width="1024" height="522"></rect>
                <g id="wikipedia" opacity="0.799999952" transform="translate(316.000000, 310.000000)">
                    <rect id="Rectangle-9" fill="#6B7280" x="0" y="0" width="72" height="72" rx="4"></rect>
                    <path d="M59.965867,21 L50.0427773,21 L49.3329185,21.1243381 L49.3329185,22.0951525 C49.3329185,22.2091744 49.6715814,22.3047355 49.7654471,22.3758634 C49.8550461,22.4529639 50.09771,22.4947719 50.1974423,22.4947719 L51.0966323,22.5403806 C52.1163543,22.5892471 52.4267508,22.814576 52.8240797,23.1946488 C53.2139421,23.5882955 53.2779414,24.2561377 52.9739447,25.1949174 L44.2039088,48.5036943 L43.8689792,48.4021606 L38.2973078,35.6436608 C38.3783736,35.4519955 38.4269064,35.3444892 38.4269064,35.3444892 L42.9879224,25.8003191 C43.5185831,24.7936692 44.0321774,23.8939826 44.2929745,23.4748167 C44.7692359,22.7103275 45.0012333,22.5658998 46.2998856,22.4991156 C46.5649493,22.4991156 46.6668148,22.3666331 46.6668148,22.0984103 L46.6668148,21.1330255 L46.6001489,21.0293199 C46.6001489,21.0293199 41.1474095,21.0103163 38.6647704,21.0293199 L38.6663704,21.1286818 L38.6663704,22.0946096 C38.6663704,22.2124321 38.6023711,22.3063644 38.6903701,22.3774923 C38.7842357,22.4545928 38.823702,22.4942289 38.9245008,22.4942289 L39.29623,22.5425525 C40.3111521,22.591419 40.7650137,22.8878757 40.9031455,23.0741114 C41.1458095,23.4080325 41.2588749,23.7642149 40.6716814,25.1976322 L37.1597204,33.0271312 L33.985889,25.7644836 C32.9453673,23.4438679 32.6877701,22.7255304 34.2568194,22.591419 L34.678148,22.4920571 C34.9800113,22.4920571 34.9330785,22.3704338 34.9330785,22.1396753 L34.9330785,21.1243381 L34.9016122,21.041265 C34.9016122,21.041265 29.0883435,21.041265 26.4361063,21.0428939 L26.39984,21.1422558 L26.39984,22.1603079 C26.39984,22.3888945 26.6211709,22.4475343 27.031833,22.5105178 C28.50115,22.7255304 28.4755503,22.897649 29.9272675,26.1190372 C30.1443317,26.6017296 30.7853913,28.0574083 30.7853913,28.0574083 L34.0941545,35.3282004 C34.0941545,35.3282004 34.469617,36.2620935 35.0568105,37.7117996 L30.2483306,48.4423397 L29.973667,48.3636104 C29.973667,48.3636104 22.5118832,30.7613546 20.3540405,24.8718556 C20.126843,24.265368 20.0281775,23.8114526 20.0281775,23.5318276 C20.0281775,22.9334845 20.5103054,22.6093367 21.4745614,22.5658998 L22.9417451,22.5121467 C23.2420084,22.5121467 23.733203,22.3840078 23.733203,22.1174139 L23.733203,21.1514861 L23.2910745,21.0515813 C23.2910745,21.0515813 14.1498428,21.0401791 12.3034633,21.0515813 L12,21.1514861 L12,22.1679093 C12,22.3503442 12.2389307,22.4638231 12.6543927,22.5121467 C13.7898468,22.5821886 14.552505,22.7830842 14.9098343,23.121892 C15.266097,23.4628715 15.6527594,24.3245508 16.1540872,25.6672936 C18.8671237,32.9560033 24.6350596,45.9631794 27.4424951,53.3724265 C28.2494195,55.3938707 29.2686081,55.7087881 30.5000611,53.3089 C31.768847,50.6766246 34.3282852,44.8338203 36.1954645,40.5210803 C37.9421118,44.823504 40.3202187,50.644047 41.4674059,53.281209 C42.3804624,55.3916988 43.4220509,55.6001959 44.4785725,53.3441925 C47.2428084,46.4735628 55.3157854,25.7965183 55.3157854,25.7965183 C55.6645815,24.781724 56.1520428,23.9998601 56.7803024,23.4319228 C57.4037622,22.8710439 58.3317519,22.5539547 59.6330707,22.4920571 C59.8965345,22.4920571 60,22.3568598 60,22.0951525 L60,21.1243381 L59.965867,21 L59.965867,21 Z" id="Wikipedia" fill="#2A2C3C"></path>
                </g>
            </g>
        </g>
    </g>
</svg>