<?xml version="1.0" encoding="UTF-8"?>
<svg width="25px" height="18px" viewBox="0 0 25 18" version="1.1" xmlns="http://www.w3.org/2000/svg" xmlns:xlink="http://www.w3.org/1999/xlink">
    <!-- Generator: Sketch 49.3 (51167) - http://www.bohemiancoding.com/sketch -->
    <title>Youtube-color</title>
    <desc>Created with Sketch.</desc>
    <defs></defs>
    <g id="Page-1" stroke="none" stroke-width="1" fill="none" fill-rule="evenodd" opacity="0.200000018">
        <g id="Merger" transform="translate(-291.000000, -4111.000000)" fill="#FFFFFF">
            <g id="Foot" transform="translate(-1.000000, 3948.000000)">
                <g id="Group-3-Copy" transform="translate(43.000000, 160.000000)">
                    <path d="M259.022,15.134958 L259.02125,8.3438708 L265.50575,11.7511219 L259.022,15.134958 Z M273.26,7.16708135 C273.26,7.16708135 273.02525,5.5015995 272.306,4.76818323 C271.39325,3.80514951 270.37025,3.80061759 269.9015,3.74472386 C266.543,3.5 261.50525,3.5 261.50525,3.5 L261.49475,3.5 C261.49475,3.5 256.457,3.5 253.0985,3.74472386 C252.629,3.80061759 251.60675,3.80514951 250.69325,4.76818323 C249.974,5.5015995 249.74,7.16708135 249.74,7.16708135 C249.74,7.16708135 249.5,9.12336162 249.5,11.0788866 L249.5,12.9128049 C249.5,14.8690852 249.74,16.8246101 249.74,16.8246101 C249.74,16.8246101 249.974,18.490092 250.69325,19.2235082 C251.60675,20.186542 252.806,20.1563291 253.34,20.2567868 C255.26,20.4425956 261.5,20.5 261.5,20.5 C261.5,20.5 266.543,20.4924468 269.9015,20.2477229 C270.37025,20.1910739 271.39325,20.186542 272.306,19.2235082 C273.02525,18.490092 273.26,16.8246101 273.26,16.8246101 C273.26,16.8246101 273.5,14.8690852 273.5,12.9128049 L273.5,11.0788866 C273.5,9.12336162 273.26,7.16708135 273.26,7.16708135 L273.26,7.16708135 Z" id="Youtube"></path>
                </g>
            </g>
        </g>
    </g>
</svg>